<svg xmlns="http://www.w3.org/2000/svg" width="1200" height="360" viewBox="0 0 1200 360" role="img" aria-labelledby="title desc">
  <title id="title">918 Property Solutions horizontal logo</title>
  <desc id="desc">Horizontal 918 Property Solutions logo with an architectural digital house-number mark.</desc>
  <defs>
    <linearGradient id="panel" x1="0" y1="0" x2="1" y2="1">
      <stop offset="0" stop-color="#314238"/>
      <stop offset="1" stop-color="#17231d"/>
    </linearGradient>
    <linearGradient id="green" x1="74" y1="104" x2="254" y2="222" gradientUnits="userSpaceOnUse">
      <stop offset="0" stop-color="#6fa58f"/>
      <stop offset="1" stop-color="#2f8f72"/>
    </linearGradient>
    <linearGradient id="rust" x1="220" y1="104" x2="308" y2="222" gradientUnits="userSpaceOnUse">
      <stop offset="0" stop-color="#b77a55"/>
      <stop offset="1" stop-color="#bb4b2b"/>
    </linearGradient>
  </defs>
  <g transform="translate(42 42)">
    <rect width="276" height="276" rx="38" fill="url(#panel)"/>
    <rect x="64" y="76" width="23" height="28" rx="4" fill="#6fa58f"/>
    <path d="M54 101 138 42l84 59" fill="none" stroke="#fffaf0" stroke-width="13" stroke-linecap="round" stroke-linejoin="round"/>
    <path d="M199 59v-18h28v38" fill="none" stroke="#b77a55" stroke-width="11" stroke-linecap="round" stroke-linejoin="round"/>
    <rect x="126" y="75" width="24" height="24" rx="4" fill="#fffaf0"/>
    <rect x="198" y="76" width="25" height="25" rx="4" fill="#b77a55"/>
    <rect x="36" y="116" width="204" height="101" rx="18" fill="#fffaf0"/>
    <g fill="none" stroke-linecap="square" stroke-linejoin="round">
      <g stroke="url(#green)" stroke-width="14">
        <path d="M64 136h40"/>
        <path d="M64 136v31"/>
        <path d="M104 136v62"/>
        <path d="M64 167h40"/>
        <path d="M64 198h40"/>
      </g>
      <g stroke="#17231d" stroke-width="15">
        <path d="M138 136v62"/>
      </g>
      <g stroke="url(#rust)" stroke-width="14">
        <path d="M172 136h43v31h-43v-31Z"/>
        <path d="M172 167h43v31h-43v-31Z"/>
        <path d="M172 136v62"/>
        <path d="M215 136v62"/>
        <path d="M172 167h43"/>
      </g>
    </g>
    <path d="M46 234h184" fill="none" stroke="#2f8f72" stroke-width="10" stroke-linecap="round"/>
    <circle cx="199" cy="235" r="15" fill="#fffaf0"/>
    <path d="M212 235h32m-12 0v15m-14-15v10" fill="none" stroke="#fffaf0" stroke-width="7" stroke-linecap="round"/>
  </g>
  <g transform="translate(382 64)">
    <text x="0" y="56" font-family="Arial Black, Arial, Helvetica, sans-serif" font-size="70" font-weight="900" letter-spacing="-1"><tspan fill="#2f8f72">9</tspan><tspan fill="#17231d">1</tspan><tspan fill="#bb4b2b">8</tspan></text>
    <text x="0" y="118" fill="#17231d" font-family="Arial, Helvetica, sans-serif" font-size="50" font-weight="900" letter-spacing="2">PROPERTY</text>
    <text x="0" y="178" fill="#bb4b2b" font-family="Arial, Helvetica, sans-serif" font-size="50" font-weight="900" letter-spacing="2">SOLUTIONS</text>
    <rect x="2" y="201" width="370" height="6" rx="3" fill="#2f8f72"/>
    <text x="2" y="245" fill="#5d675f" font-family="Arial, Helvetica, sans-serif" font-size="20" font-weight="800" letter-spacing="4">PROPERTY PROBLEMS, SOLVED.</text>
  </g>
</svg>
